<?xml version="1.0" encoding="UTF-8" standalone="no"?>
<svg width="100" height="100" viewBox="0 0 127 127" version="1.1" xmlns="http://www.w3.org/2000/svg" xmlns:xlink="http://www.w3.org/1999/xlink">
	<title>Signet A-Bus</title>
	<desc>© VBB http://www.vbb.de/de/article/ueber-uns/media-service/produktsignets/3306.html</desc>
	<g id="a-bus" fill-rule="evenodd" transform="scale(0.7874015748)">
		<path d="M127,63.5001517 C127,28.3768831 98.6231169,0 63.4998483,0 C28.3775909,0 0,28.3768831 0,63.5001517 C0,98.6224091 28.3775909,127.000303 63.4998483,127.000303 C98.6231169,127.000303 127,98.6224091 127,63.5001517" fill="#922A7D"/>
		<path d="M11.333,99.367 L31.297,99.367 L44.262,84.684 L79.588,84.684 L79.771,99.367 L103.337,99.367 L98.136,30.583 L76.588,30.583 L11.184,99.141 L11.333,99.367 L11.333,99.367 Z M55.656,71.676 L77.82,46.488 L78.134,46.017 L78.8,71.676 L55.656,71.676 L55.656,71.676 Z" fill="#fff"/>
	</g>
</svg>
