<?xml version="1.0" encoding="UTF-8" standalone="no"?>
<svg width="100" height="100" viewBox="0 0 127 127" version="1.1" xmlns="http://www.w3.org/2000/svg" xmlns:xlink="http://www.w3.org/1999/xlink">
	<title>Signet X-Bus</title>
	<desc>© VBB http://www.vbb.de/de/article/ueber-uns/media-service/produktsignets/3306.html</desc>
	<g id="a-bus" fill-rule="evenodd">
		<path d="M126.02,63.056 C126.02,28.32 97.956,0.256 63.22,0.256 C28.485,0.256 0.4203,28.32 0.4203,63.056 C0.4203,97.791 28.485,125.856 63.22,125.856 C97.956,125.856 126.02,97.791 126.02,63.056" fill="#922A7D"/>
		<path d="M10.722502,97.5765297 C10.8968257,97.8414307 11.073102,98.1049276 11.2513106,98.367 L30.297,98.367 L43.262,83.684 L78.588,83.684 L78.771,98.367 L102.337,98.367 L97.136,29.583 L75.588,29.583 L10.722502,97.5765297 L10.722502,97.5765297 L10.722502,97.5765297 L10.722502,97.5765297 L10.722502,97.5765297 L10.722502,97.5765297 L10.722502,97.5765297 Z M54.656,70.676 L76.82,45.488 L77.134,45.017 L77.8,70.676 L54.656,70.676 L54.656,70.676 L54.656,70.676 L54.656,70.676 L54.656,70.676 L54.656,70.676 Z" fill="#fff"/>
	</g>
</svg>
