<?xml version="1.0" encoding="UTF-8" standalone="no"?>
<svg width="100" height="100" viewBox="0 0 210 210" version="1.1" xmlns="http://www.w3.org/2000/svg" xmlns:xlink="http://www.w3.org/1999/xlink">
	<title>Signet MetroTram</title>
	<desc>https://commons.wikimedia.org/wiki/File:MetroBus.svg</desc>
	<g transform="translate(0,-842.39556)">
		<g transform="translate(-462.85695,323.19699)">
			<path d="M 123.82275,668.51166 C 123.82794,686.46688 110.66005,701.02551 94.414847,701.02551 C 78.169642,701.02551 65.001756,686.46688 65.006945,668.51166 C 65.001756,650.55644 78.169642,635.99781 94.414848,635.99781 C 110.66005,635.99781 123.82794,650.55644 123.82275,668.51166 L 123.82275,668.51166 z" transform="matrix(3.5532295,0,0,3.2148268,232.37933,-1524.984)" fill="#f47920" stroke="#fff" stroke-width=".3" fill-rule="nonzero"/>
			<path d="M 494.53605,683.91016 L 521.45914,560.83323 L 557.61297,560.83323 L 562.22837,645.44859 L 605.30529,560.83323 L 640.6899,560.83323 L 616.84376,685.44859 L 592.99759,684.67937 L 609.15146,592.37167 L 565.30528,685.44859 L 546.07454,685.44859 L 536.84375,593.91014 L 518.38223,684.67937 L 494.53605,683.91016 z" fill="#fff" stroke="#fff" stroke-width="1.9277"/>
		</g>
	</g>
</svg>
