<?xml version="1.0" encoding="UTF-8" standalone="no"?>
<svg width="100" height="100" viewBox="0 0 127 127" version="1.1" xmlns="http://www.w3.org/2000/svg" xmlns:xlink="http://www.w3.org/1999/xlink">
	<title>Signet R-Bus</title>
	<desc>© VBB http://www.vbb.de/de/article/ueber-uns/media-service/produktsignets/3306.html</desc>
	<g id="r-bus" fill-rule="evenodd">
		<path d="M126.02,63.433 C126.02,28.667 97.931,0.579 63.165,0.579 C28.399,0.579 0.3099,28.667 0.3099,63.433 C0.3099,98.199 28.399,126.28844 63.165,126.28844 C97.931,126.28844 126.02,98.199 126.02,63.433" fill="#922A7D"/>
		<path d="M10.5427539,97.8648047 C10.7413182,98.1680418 10.9424347,98.4694504 11.1460733,98.769 L30.493,98.769 L46.716,72.295 L54.028,72.295 L59.72,98.769 L85.185,98.769 L73.444,71.022 C75.347,70.757 74.749,70.828 76.69,70.251 C87.469,67.047 97.454,59.161 101.268,51.115 C108.234,36.417 97.333,29.935 81.233,29.935 L54.56,29.935 L10.542756,97.864805 L10.5427539,97.8648047 L10.5427539,97.8648047 L10.5427539,97.8648047 L10.5427539,97.8648047 Z M64.3,42.992 L69.507,42.962 C76.422,42.896 83.509,43.923 79.572,51.447 C75.636,58.971 66.122,60.157 59.207,60.224 L54.009,60.257 L64.3,42.992 L64.3,42.992 L64.3,42.992 L64.3,42.992 Z" fill="#fff"/>
	</g>
</svg>
