<?xml version="1.0" encoding="UTF-8" standalone="no"?>
<svg width="100" height="100" viewBox="0 0 117 117" version="1.1" xmlns="http://www.w3.org/2000/svg" xmlns:xlink="http://www.w3.org/1999/xlink">
	<title>Signet Regionalverkehr</title>
	<desc>© VBB http://www.vbb.de/de/article/ueber-uns/media-service/produktsignets/3306.html</desc>
	<g id="regional-train" fill-rule="evenodd" transform="scale(0.8547008547)">
		<polyline fill="#D9222A" points="117.469 58.614 59.217 0.362 0.965 58.614 59.217 116.866 117.469 58.614"/>
		<path d="M39.664,62.7 C39.664,59.406 37.735,57.444 34.683,56.918 L34.683,56.847 C37.138,56.252 39.278,54.815 39.278,50.89 C39.278,47.246 36.753,45.108 31.56,45.108 L22.3,45.108 L22.3,69.568 L31.701,69.568 C36.367,69.568 39.664,67.536 39.664,62.7 L39.664,62.7 L39.664,62.7 Z M32.964,52.187 C32.964,54.254 31.526,54.885 29.912,54.885 L28.614,54.885 L28.614,49.523 L30.298,49.523 C31.841,49.523 32.964,50.364 32.964,52.187 L32.964,52.187 L32.964,52.187 Z M33.35,62.209 C33.35,64.067 32.262,65.013 30.368,65.013 L28.614,65.013 L28.614,59.301 L30.648,59.301 C32.368,59.301 33.35,60.387 33.35,62.209 L33.35,62.209 L33.35,62.209 Z" fill="#fff"/>
		<path d="M57.855,69.569 C57.75,68.482 57.645,67.011 57.645,65.539 L57.645,57.654 C57.645,53.904 56.382,50.89 49.962,50.89 C46.91,50.89 44.63,51.521 43.121,52.082 L43.332,56.603 C44.665,55.762 46.63,54.885 48.594,54.885 C51.085,54.885 52.031,56.217 52.031,57.374 L52.031,57.935 L50.418,57.935 C44.069,57.935 41.017,60.107 41.017,64.172 C41.017,67.677 43.332,69.989 46.56,69.989 C48.769,69.989 50.208,69.078 52.031,67.046 C52.031,67.887 52.172,68.728 52.242,69.569 L57.855,69.569 L57.855,69.569 L57.855,69.569 Z M52.031,61.334 C52.031,63.051 51.716,65.994 48.804,65.994 C47.506,65.994 46.63,65.364 46.63,63.752 C46.63,61.614 48.488,60.738 51.295,60.738 L52.031,60.738 L52.031,61.334 L52.031,61.334 L52.031,61.334 Z" fill="#fff"/>
		<path d="M77.95,69.569 L77.95,56.778 C77.95,52.748 75.53,50.89 72.407,50.89 C70.267,50.89 68.654,51.767 67.602,53.624 L67.496,53.624 C67.566,52.958 67.636,52.117 67.636,51.381 L67.636,43.286 L61.322,43.286 L61.322,69.569 L67.636,69.569 L67.636,59.547 C67.636,57.654 68.338,56.007 69.917,56.007 C71.109,56.007 71.635,56.848 71.635,58.6 L71.635,69.569 L77.95,69.569" fill="#fff"/>
		<path d="M98.263,69.569 L98.263,56.778 C98.263,52.748 95.842,50.89 92.72,50.89 C89.142,50.89 87.914,53.378 87.563,54.36 L87.493,54.36 C87.493,53.344 87.459,52.047 87.353,51.311 L81.425,51.311 C81.53,52.152 81.635,53.659 81.635,55.026 L81.635,69.569 L87.949,69.569 L87.949,59.547 C87.949,57.654 88.651,56.007 90.23,56.007 C91.422,56.007 91.948,56.848 91.948,58.6 L91.948,69.569 L98.263,69.569" fill="#fff"/>
	</g>
</svg>
