<?xml version="1.0" encoding="UTF-8" standalone="no"?>
<svg width="100" height="100" viewBox="0 0 127 127" version="1.1" xmlns="http://www.w3.org/2000/svg" xmlns:xlink="http://www.w3.org/1999/xlink">
	<title>Signet S-Bahn</title>
	<desc>© VBB http://www.vbb.de/de/article/ueber-uns/media-service/produktsignets/3306.html</desc>
	<g id="s-bahn" fill-rule="evenodd">
		<path d="M126.992,64.022 C126.992,29.002 98.516,0.526 63.496,0.526 C28.476,0.526 0,29.002 0,64.022 C0,99.042 28.476,127.51812 63.496,127.51812 C98.516,127.51812 126.992,99.042 126.992,64.022 L126.992,64.022 Z" fill="#00945A"/>
		<path d="M105.176,80.901 C105.176,96.287 90.249,114.199 65.104,114.199 C51.096,114.199 34.906,107.884 26.064,99.961 L26.064,79.982 C34.446,92.038 49.718,101.339 65.104,101.339 C74.519,101.339 82.097,95.942 82.097,90.201 C82.097,68.5 25.261,81.934 25.261,44.502 C25.261,24.868 44.436,14.304 61.659,14.304 C76.012,14.304 88.872,19.012 99.091,26.935 L99.091,43.584 C90.249,34.054 76.93,25.672 61.314,25.672 C52.473,25.672 47.421,30.379 47.421,35.891 C47.421,59.085 105.176,42.78 105.176,80.901 L105.176,80.901 Z" fill="#fff"/>
	</g>
</svg>
