<?xml version="1.0" encoding="UTF-8" standalone="no"?>
<svg width="100" height="100" xmlns="http://www.w3.org/2000/svg">
	<title>Signets BVG &amp; VBB</title>
	<defs>

		<g id="subway" fill-rule="evenodd">
			<path fill="#00629E" d="M.29 99.49h99.46V.02H.29z"/>
			<path d="M83.51 61.74c0 22.55-18.48 30.8-33.6 30.8-15.21 0-33.39-8.25-33.39-30.8V7.88h19.6V59.8c0 9.49 3.38 16.22 13.8 16.22 10.3 0 13.68-6.73 13.68-16.22V7.88h19.9v53.86z" fill="#fff"/>
		</g>

		<g id="suburban" fill-rule="evenodd">
			<path d="M100 50.41c0-27.57-22.43-50-50-50-27.58 0-50 22.43-50 50 0 27.58 22.42 50 50 50 27.57 0 50-22.42 50-50z" fill="#00945A"/>
			<path d="M82.82 63.7c0 12.12-11.76 26.22-31.56 26.22-11.03 0-23.77-4.97-30.74-11.21V62.98c6.6 9.5 18.63 16.81 30.74 16.81 7.42 0 13.38-4.25 13.38-8.77 0-17.08-44.75-6.5-44.75-35.98 0-15.46 15.1-23.78 28.66-23.78 11.3 0 21.43 3.71 29.47 9.95v13.1c-6.96-7.5-17.45-14.1-29.74-14.1-6.96 0-10.94 3.71-10.94 8.05 0 18.26 45.48 5.43 45.48 35.44z" fill="#fff"/>
		</g>

		<g id="regional" fill-rule="evenodd">
			<path fill="#D9222A" d="M100.4 50.1L50.61.3.82 50.1l49.8 49.79 49.78-49.8"/>
			<path d="M33.9 53.59c0-2.82-1.65-4.5-4.26-4.94v-.06c2.1-.51 3.93-1.74 3.93-5.1 0-3.1-2.16-4.94-6.6-4.94h-7.91v20.91h8.03c4 0 6.81-1.74 6.81-5.87zm-5.73-8.99c0 1.77-1.22 2.31-2.6 2.31h-1.11v-4.58h1.44c1.31 0 2.27.72 2.27 2.27zm.33 8.57c0 1.59-.93 2.4-2.54 2.4h-1.5v-4.89h1.73c1.47 0 2.31.93 2.31 2.49zm20.95 6.29c-.1-.93-.18-2.19-.18-3.44v-6.74c0-3.2-1.08-5.78-6.57-5.78-2.6 0-4.55.54-5.84 1.01l.18 3.87a8.91 8.91 0 0 1 4.5-1.47c2.12 0 2.93 1.14 2.93 2.13v.48H43.1c-5.42 0-8.03 1.85-8.03 5.33 0 3 1.98 4.97 4.73 4.97 1.9 0 3.12-.78 4.68-2.52 0 .72.12 1.44.18 2.16h4.8zm-4.98-7.04c0 1.47-.27 3.99-2.76 3.99-1.1 0-1.86-.54-1.86-1.92 0-1.83 1.6-2.58 4-2.58h.62v.51zm22.15 7.04V48.53c0-3.45-2.06-5.03-4.73-5.03a4.4 4.4 0 0 0-4.11 2.33h-.1c.07-.57.13-1.29.13-1.91V37h-5.4v22.46h5.4V50.9c0-1.61.6-3.02 1.95-3.02 1.02 0 1.47.72 1.47 2.22v9.37h5.4m17.36-.01V48.53c0-3.45-2.07-5.03-4.74-5.03a4.4 4.4 0 0 0-4.41 2.96h-.06c0-.87-.03-1.98-.12-2.6H69.6c.1.71.18 2 .18 3.17v12.43h5.4V50.9c0-1.61.6-3.02 1.95-3.02 1.02 0 1.47.72 1.47 2.22v9.37H84" fill="#fff"/>
		</g>

		<g id="express">
			<path d="M100.06 50.04A50.06 50.06 0 0 0 50.03 0 50.06 50.06 0 0 0 0 50.04a50.06 50.06 0 0 0 50.03 50.04 50.06 50.06 0 0 0 50.03-50.04z" fill="#fff500"/>
			<path clip-rule="evenodd" d="M33.8 63.87c0-1.86 1.66-3.36 3.7-3.36 2.05 0 3.7 1.5 3.7 3.36 0 1.87-1.65 3.37-3.7 3.37-2.04 0-3.7-1.5-3.7-3.37zm25.04 0c0-1.86 1.66-3.36 3.72-3.36 2.04 0 3.7 1.5 3.7 3.36 0 1.87-1.66 3.37-3.7 3.37-2.06 0-3.72-1.5-3.72-3.37zM30.9 55.19s12.78-.8 19.12-.78c6.6.02 19.12.73 19.12.73.83-7.22-.36-12.1-3.05-19.02 0 0-9.78-1.32-16.05-1.33C43.77 34.77 34 36.07 34 36.07c-2.68 6.98-3.89 11.87-3.09 19.12zm43.43 36.32l-1.28-4.13h-7.89v-4.14h-4.25v4.14H39.13v-4.14h-4.25v4.14H27.1l-1.39 4.13h48.6zm-28.01-63.6c0-1.85 1.66-3.37 3.71-3.37 2.04 0 3.7 1.52 3.7 3.37 0 1.86-1.66 3.38-3.7 3.38-2.05 0-3.71-1.52-3.71-3.38zM34.88 79.09l-5.2-6.33C24.58 66 24.81 59 24.78 53.68a58.7 58.7 0 0 1 2.8-19.31c1.6-4.28 5.9-11.55 9.46-12.91 3.76-.87 8.38-1 12.99-1 4.61 0 9.22.13 13 1 3.54 1.36 7.85 8.63 9.45 12.9a59.05 59.05 0 0 1 2.8 19.32c-.04 5.33.2 12.33-4.9 19.08l-5.22 6.33H34.88z" fill="#1f1a17"/>
			<path fill="#1f1a17" d="M52.4 12.66l1.2 4.19h-5.25l-1.21-4.2h-9.67l1.37-4.12h22.47l1.28 4.13z"/>
		</g>

		<g id="tram" fill-rule="evenodd">
			<path fill="#D9222A" d="M.04 99.87H99.5V.41H.04z"/>
			<path fill="#fff" d="M26.29 36.72h-7.46v25.4h-8.17v-25.4H3.82v-6.01H26.3z"/>
			<path d="M38.03 46.31c-.51-.1-1.22-.1-1.74-.1-3.26 0-4.9 1.94-4.9 5.82v10.1h-7.55V40.09h6.63l.41 4.39c1.23-3.98 3.37-5 6.74-5h.41v6.83zm18.99 15.82H50.8l-.3-2.96c-1.33 2.45-3.88 3.26-6.23 3.26-3.98 0-6.43-2.34-6.43-6.83 0-5.1 3.67-7.35 11.43-7.35h1.13v-.71c0-2.04-1.03-3.06-3.78-3.06-2.76 0-4.9.4-6.44.92v-4.9a29.7 29.7 0 0 1 7.77-1.12c6.43 0 9.08 3.67 9.08 7.24v15.5zm-6.63-8.06v-2.35h-.51c-4.2 0-5.52 1.02-5.52 3.57 0 1.94 1.02 2.86 2.45 2.86 1.74 0 3.58-.92 3.58-4.08zm43.5 8.06h-7.46V48.86c0-1.83-.92-2.65-2.35-2.65-2.04 0-2.85 1.53-2.85 3.37v12.55h-7.25V48.86c0-1.83-.92-2.65-2.35-2.65-2.05 0-2.86 1.53-2.86 3.37v12.55H61.3V40.09h7.15v3.88c.4-2.86 2.96-4.5 6.13-4.5 2.75 0 4.9 1.54 5.92 3.89 1.12-2.25 3.17-3.88 6.64-3.88 4.08 0 6.74 2.86 6.74 7.34v15.3z" fill="#fff"/>
		</g>
		<g id="metro-tram" fill-rule="evenodd">
			<path fill="#f47920" fill-rule="nonzero" d="M0 0h99.99v99.99h-100z"/>
			<path d="M13.46 79.62l13.46-61.54H45l2.3 42.3 21.55-42.3h17.69l-11.92 62.3L62.69 80l8.08-46.15-21.92 46.53h-9.62l-4.61-45.76L25.38 80l-11.92-.38z" fill="#fff" stroke-width=".6" stroke="#fff"/>
		</g>

		<g id="bus" fill-rule="evenodd" transform="scale(.2)">
			<circle cx="250.5" cy="250.5" r="250" fill="#939"/>
			<path d="M474.63 281.6c0 16.35-6.1 29.66-18.27 39.92-12.1 10.18-28.58 15.27-49.41 15.27-12.04 0-22.56-1.2-31.54-3.57a152.32 152.32 0 0 1-25.1-9.25v-39.8h4.1a84.47 84.47 0 0 0 25.98 16.27c9.63 3.8 18.88 5.69 27.73 5.69 2.28 0 5.27-.22 8.99-.67a32.1 32.1 0 0 0 9.08-2.23 21.82 21.82 0 0 0 7.03-5.02c1.89-2 2.83-4.98 2.83-8.91 0-3.65-1.37-6.77-4.1-9.37-2.67-2.67-6.6-4.72-11.82-6.13a289.71 289.71 0 0 0-17.38-4.13 125.44 125.44 0 0 1-17.09-5.01c-12.24-4.54-21.06-10.67-26.46-18.4-5.34-7.8-8.01-17.46-8.01-28.98 0-15.46 6.05-28.06 18.16-37.8 12.18-9.8 27.8-14.71 46.88-14.71 9.57 0 19 1.07 28.32 3.23 9.37 2.08 17.48 4.72 24.31 7.91v38.24h-4c-5.86-5.35-13.05-9.8-21.58-13.37a65.13 65.13 0 0 0-25.98-5.47c-3.12 0-6.25.26-9.37.78a31.72 31.72 0 0 0-8.89 2.68 16.98 16.98 0 0 0-6.54 5.13 11.8 11.8 0 0 0-2.74 7.69c0 4.39 1.47 7.77 4.4 10.15 2.93 2.3 8.46 4.42 16.6 6.35 5.34 1.26 10.45 2.49 15.33 3.68a144.1 144.1 0 0 1 15.92 4.9c11.13 4.17 19.33 9.85 24.6 17.06 5.35 7.14 8.02 16.43 8.02 27.87m-151.57-7.91c0 20.51-5.47 36.23-16.4 47.16-10.94 10.92-27.05 16.38-48.34 16.38-21.3 0-37.4-5.46-48.34-16.38-10.88-10.93-16.31-26.61-16.31-47.05V167.78h37.7v103.57c0 11.52 2.1 20.1 6.34 25.75 4.23 5.65 11.1 8.47 20.6 8.47 9.38 0 16.22-2.71 20.51-8.14 4.37-5.42 6.55-14.12 6.55-26.08V167.78h37.7v105.9m-155.28 9.26c0 8.03-1.43 15.2-4.3 21.52a42.89 42.89 0 0 1-11.62 15.72 51.99 51.99 0 0 1-18.94 10.48c-6.84 2.08-15.53 3.12-26.08 3.12H43.38v-166h56.44c11.72 0 20.28.44 25.68 1.33 5.47.9 10.88 2.87 16.21 5.91a30.07 30.07 0 0 1 12.31 12.94c2.73 5.35 4.1 11.48 4.1 18.39 0 8.03-1.85 15.13-5.57 21.3a37.97 37.97 0 0 1-15.72 14.26v.9c9.5 2.15 17.03 6.61 22.56 13.37 5.6 6.77 8.4 15.69 8.4 26.76zm-38.87-.67c0-5.27-.91-9.33-2.73-12.15-1.76-2.9-4.79-5.05-9.08-6.47-2.93-.96-6.97-1.48-12.11-1.56-5.15-.07-10.52-.1-16.12-.1h-8.2v41.35h2.73c10.55 0 18.1-.03 22.66-.1a29.68 29.68 0 0 0 12.6-2.9c3.9-1.87 6.57-4.32 8-7.37a24.46 24.46 0 0 0 2.25-10.7zm-9.18-67.56c0-2.75-.62-5.5-1.85-8.25a11.62 11.62 0 0 0-6.35-6.13c-2.74-1.19-6.15-1.82-10.25-1.9-4.04-.14-9.74-.22-17.1-.22h-3.51v35.12h5.86c5.92 0 10.97-.11 15.14-.33 4.16-.23 7.45-.97 9.86-2.23 3.38-1.71 5.6-3.9 6.64-6.58a26.64 26.64 0 0 0 1.56-9.48z" fill="#fff"/>
		</g>
		<g id="metro-bus" stroke="#fff">
			<path d="M123.82 668.51c0 17.96-13.16 32.52-29.4 32.52-16.25 0-29.42-14.56-29.41-32.52C65 650.56 78.17 636 94.4 636c16.25 0 29.42 14.56 29.41 32.51z" transform="matrix(1.69201 0 0 1.53087 -109.75 -973.42)" fill="#f47920" stroke-width=".3"/>
			<path d="M15.09 78.43l12.82-58.6h17.21l2.2 40.29 20.51-40.3h16.85L73.33 79.18l-11.36-.37 7.7-43.96-20.89 44.33h-9.15l-4.4-43.6-8.79 43.23-11.35-.37z" fill="#fff" stroke-width=".92"/>
		</g>
		<g id="express-bus">
			<path d="M98.17 49.4A48.72 48.72 0 0 0 49.4.62 48.72 48.72 0 0 0 .63 49.39 48.72 48.72 0 0 0 49.4 98.16 48.72 48.72 0 0 0 98.17 49.4z" fill="#fff"/>
			<path d="M91.37 23.4A49.38 49.38 0 0 0 49.4 0 49.44 49.44 0 0 0 0 49.4c0 9.9 2.86 19.02 8.04 26.97l.09.09 33.14-27.6-.45-25.46h17.77l-1.07 15.63L74.05 23.4h17.32zm7.42 26c0-9.38-2.68-18.23-7.24-25.73l-.09-.09-29.92 24.74.27 28.5H44.03l.9-18.05-19.65 18.05H8.3l.09.17a49.51 49.51 0 0 0 41 21.8 49.44 49.44 0 0 0 49.39-49.4z" fill="#901E78"/>
		</g>
		<g id="special-bus" fill-rule="evenodd">
			<path d="M100 50c0-27.66-22.34-50-50-50S0 22.34 0 50s22.34 50 50 50 50-22.34 50-50" fill="#922A7D"/>
			<path d="M8.92 78.24h15.72l10.21-11.56h27.82l.14 11.56h18.56l-4.1-54.16H60.31L8.8 78.06l.11.18zm34.9-21.8L61.28 36.6l.24-.37.53 20.2H43.82z" fill="#fff"/>
		</g>
		<g id="on-call-bus" fill-rule="evenodd">
			<path d="M99.23 49.95A49.44 49.44 0 0 0 49.73.45 49.44 49.44 0 0 0 .25 49.96a49.44 49.44 0 0 0 49.5 49.49 49.44 49.44 0 0 0 49.49-49.5" fill="#922A7D"/>
			<path d="M8.3 77.06l.48.71H24l12.77-20.84h5.76l4.48 20.84h20.05l-9.24-21.85c1.5-.2 1.03-.15 2.56-.6 8.48-2.53 16.35-8.74 19.35-15.07 5.48-11.58-3.1-16.68-15.78-16.68h-21L8.3 77.06zm42.33-43.2l4.1-.03c5.44-.05 11.03.76 7.93 6.68-3.1 5.92-10.6 6.86-16.04 6.91l-4.1.03 8.11-13.6z" fill="#fff"/>
		</g>

		<g id="ferry" fill-rule="evenodd">
			<path d="M98.95 50a48.95 48.95 0 1 1-97.9 0 48.95 48.95 0 0 1 97.9 0z" fill="#fff" fill-rule="nonzero"/>
			<path d="M81.2 88.95c-2.48.88-21.33.49-31.9-2.69-25.77-7.74-36.7-3.11-36.56-3.04a49.88 49.88 0 0 0 68.45 5.73zm4.54-4.15c-9.39 2.05-20.64 1.16-30.4-.64-9.52-2.23-20.23-6.23-26.27-5.73l5.72-26.86h33.64l2.36-11.86H37.2L40.64 23h34.5l2.15-11.57H29L14.86 78.14c-4.36.72-4.9 1.69-4.9 1.69A49.92 49.92 0 0 1 50 .1 49.92 49.92 0 0 1 99.89 50c0 13.53-5.4 25.8-14.16 34.8z" fill="#0080c0"/>
		</g>

	</defs>
</svg>
