<?xml version="1.0" encoding="UTF-8" standalone="no"?>
<svg width="100" height="100" viewBox="0 0 114 114" version="1.1" xmlns="http://www.w3.org/2000/svg" xmlns:xlink="http://www.w3.org/1999/xlink">
	<title>Signet Tram</title>
	<desc>© VBB http://www.vbb.de/de/article/ueber-uns/media-service/produktsignets/3306.html</desc>
	<g id="tram" fill-rule="evenodd" transform="scale(0.8771929825)">
		<polygon points="0.048985 113.85188 113.434985 113.85188 113.434985 0.46588 0.048985 0.46588" fill="#D9222A"/>
		<polygon points="29.967 41.866 21.469 41.866 21.469 70.823 12.156 70.823 12.156 41.866 4.3563 41.866 4.3563 35.005 29.967 35.005" fill="#fff"/>
		<path d="M43.354,52.798 C42.773,52.682 41.958,52.682 41.376,52.682 C37.65,52.682 35.788,54.891 35.788,59.31 L35.788,70.823 L27.173,70.823 L27.173,45.704 L34.74,45.704 L35.206,50.705 C36.603,46.169 39.047,45.006 42.889,45.006 L43.354,45.006 L43.354,52.798 L43.354,52.798 Z" fill="#fff"/>
		<path d="M65.007,70.823 L57.906,70.823 L57.557,67.451 C56.044,70.242 53.133,71.172 50.456,71.172 C45.916,71.172 43.122,68.497 43.122,63.381 C43.122,57.566 47.312,55.007 56.16,55.007 L57.44,55.007 L57.44,54.193 C57.44,51.868 56.276,50.705 53.133,50.705 C49.99,50.705 47.545,51.17 45.799,51.751 L45.799,46.169 C47.429,45.704 50.805,44.89 54.647,44.89 C61.98,44.89 65.007,49.077 65.007,53.147 L65.007,70.823 L65.007,70.823 Z M57.44,61.636 L57.44,58.961 L56.858,58.961 C52.086,58.961 50.572,60.124 50.572,63.032 C50.572,65.241 51.736,66.288 53.366,66.288 C55.345,66.288 57.44,65.241 57.44,61.636 L57.44,61.636 Z" fill="#fff"/>
		<path d="M107.032,70.823 L98.534,70.823 L98.534,55.705 C98.534,53.612 97.486,52.682 95.856,52.682 C93.528,52.682 92.597,54.426 92.597,56.519 L92.597,70.823 L84.332,70.823 L84.332,55.705 C84.332,53.612 83.284,52.682 81.654,52.682 C79.326,52.682 78.395,54.426 78.395,56.519 L78.395,70.823 L69.896,70.823 L69.896,45.704 L78.045,45.704 L78.045,50.123 C78.511,46.867 81.421,45.006 85.03,45.006 C88.173,45.006 90.618,46.751 91.782,49.425 C93.063,46.867 95.391,45.006 99.349,45.006 C104.005,45.006 107.032,48.262 107.032,53.379 L107.032,70.823 L107.032,70.823 Z" fill="#fff"/>
	</g>
</svg>
