<?xml version="1.0" encoding="UTF-8" standalone="no"?>
<svg width="100" height="100" viewBox="0 0 2334 2334" version="1.1" xmlns="http://www.w3.org/2000/svg" xmlns:xlink="http://www.w3.org/1999/xlink">
	<title>Signet X-Bus</title>
	<desc>https://commons.wikimedia.org/wiki/File:X-Bus_VBB.svg</desc>
	<g id="x-bus" transform="scale(0.04284490146)">
		<path d="M2291.21 1152.85c0,-629.59 -508.667,-1138.26 -1138.26,-1138.26 -629.593,0 -1138.27,508.667 -1138.27,1138.26 0,629.594 508.673,1138.27 1138.27,1138.27 629.59,0 1138.26,-508.672 1138.26,-1138.27z" fill="white" fill-rule="nonzero"/>
		<path d="M2132.68 546.197c-202.223,-327.303 -567.041,-546.197 -979.826,-546.197 -635.837,0 -1152.86,517.021 -1152.86,1152.85 0,231.405 66.7168,444.05 187.627,629.594l2.08931 2.08348 773.424 -644.185 -10.4221 -594.15 414.874 0 -25.0181 364.834 385.678 -364.834 404.432 0zm173.031 606.656c0,-218.889 -62.5324,-425.276 -168.853,-600.392l-2.08931 -2.09048 -698.384 577.464 6.24227 665.033 -414.854 0 20.8441 -421.122 -458.648 421.122 -396.099 0 2.08931 4.17396c208.473,306.46 558.705,508.673 956.893,508.673 635.853,0 1152.86,-517.005 1152.86,-1152.86z" fill="#901E78"/>
	</g>
</svg>
